<svg width="57" height="24" viewBox="0 0 57 24" fill="none" xmlns="http://www.w3.org/2000/svg">
<g clip-path="url(#clip0_1404_253)">
<path d="M37.0912 1.79702C36.932 1.79918 36.7749 1.83665 36.6288 1.90731C36.4827 1.97796 36.3505 2.08042 36.2397 2.2088C36.0207 2.46209 35.8919 2.81751 35.8967 3.18058L36.1115 19.6896C36.1163 20.0527 36.2486 20.3985 36.4797 20.6522C36.5938 20.7776 36.7287 20.8765 36.8767 20.9433C37.0246 21.0101 37.1827 21.0434 37.3419 21.0413C37.5011 21.0393 37.6583 21.0018 37.8045 20.9312C37.9506 20.8606 38.0829 20.7582 38.1937 20.6298C38.4127 20.3766 38.5415 20.0211 38.5367 19.6581L38.3219 3.14839C38.3171 2.78532 38.1848 2.43956 37.9537 2.18587C37.8395 2.06033 37.7046 1.96132 37.5566 1.89449C37.4086 1.82766 37.2504 1.79432 37.0912 1.7964L37.0912 1.79702ZM18.6975 7.85654C18.6877 7.1016 18.1369 6.49646 17.4685 6.50515C16.8001 6.51385 16.2653 7.13313 16.2751 7.88807L16.432 19.9445C16.4418 20.6994 16.9926 21.3046 17.661 21.2959C18.3294 21.2872 18.8643 20.6679 18.8544 19.913L18.6975 7.85654Z" fill="#CDBFBF"/>
<path d="M18.9819 3.40259C18.98 3.86135 18.8186 4.30042 18.5322 4.62556C18.2459 4.95034 17.8577 5.13524 17.4508 5.14053C17.044 5.14583 16.651 4.97109 16.3564 4.65388C16.0617 4.3363 15.8888 3.90158 15.875 3.44303C15.8688 2.97825 16.0266 2.53029 16.3139 2.19766C16.4558 2.03299 16.6253 1.9016 16.8126 1.81102C16.9999 1.72044 17.2013 1.67244 17.4054 1.66979C17.6094 1.66713 17.812 1.70987 18.0016 1.79555C18.1912 1.88122 18.364 2.00816 18.5102 2.16907C18.806 2.49411 18.9755 2.93781 18.9814 3.4026L18.9819 3.40259Z" fill="white"/>
<path d="M33.8035 10.6564C32.6003 7.70065 29.8177 5.63696 26.6788 6.04094C25.6206 6.18096 24.6063 6.59532 23.7155 7.25155C22.8243 7.90821 22.0807 8.78874 21.5428 9.82425C21.0047 10.8603 20.6869 12.0233 20.614 13.2222C20.5407 14.4215 20.7153 15.6251 21.1227 16.7367C21.5299 17.8487 22.1596 18.8403 22.9625 19.6341C23.7652 20.4273 24.7192 21.0012 25.75 21.3108C26.7807 21.6204 27.8603 21.6568 28.9041 21.4172C29.9479 21.1777 30.9274 20.6687 31.7658 19.9303C31.9069 19.8052 32.0212 19.646 32.1004 19.4645C32.1797 19.2831 32.2222 19.0835 32.224 18.8806C32.2284 18.5208 32.106 18.1733 31.8835 17.9143C31.661 17.6553 31.3567 17.5061 31.0374 17.4993C30.7629 17.4929 30.4951 17.5927 30.2786 17.7821C29.4489 18.5232 28.4105 18.9049 27.3508 18.8583C26.49 18.82 25.6565 18.5038 24.9494 17.9473C24.2393 17.3916 23.6839 16.6197 23.3484 15.7223C23.3026 15.6013 23.2982 15.4657 23.3358 15.3415C23.3735 15.2174 23.4507 15.1134 23.5524 15.0497C23.6199 15.0077 23.6956 14.9852 23.7728 14.9843L32.1874 14.8747C32.5928 14.8714 32.9878 14.7322 33.3221 14.4748C33.6564 14.2175 33.9149 13.8537 34.0646 13.4297C34.1644 13.1482 34.2139 12.8472 34.2104 12.5438C34.1849 11.8928 34.0494 11.2528 33.8113 10.6582L33.8035 10.6564ZM27.4292 8.70333C28.3301 8.69185 29.2141 8.98525 29.9669 9.54557C30.7202 10.1065 31.3075 10.9087 31.6529 11.8483C31.682 11.9284 31.6937 12.0153 31.6867 12.1014C31.6795 12.1875 31.6537 12.2703 31.6117 12.3425C31.5696 12.4147 31.5126 12.4742 31.4454 12.5159C31.3783 12.5577 31.303 12.5801 31.2262 12.5814L23.7339 12.6789C23.657 12.68 23.5811 12.6595 23.513 12.6191C23.4447 12.5787 23.3862 12.5206 23.3419 12.4504C23.2976 12.3803 23.2699 12.2974 23.261 12.2111C23.2518 12.1251 23.2612 12.038 23.2882 11.9572C23.609 11.0089 24.1753 10.1917 24.9137 9.61134C25.6529 9.03445 26.5282 8.71842 27.4286 8.70333L27.4292 8.70333ZM47.2426 18.6044C46.3789 18.6159 45.5298 18.3467 44.7969 17.8292C44.0632 17.3095 43.4753 16.5658 43.1019 15.685C42.7322 14.8029 42.595 13.8206 42.7066 12.8549C42.8182 11.8892 43.1738 10.9809 43.7311 10.238L41.8747 8.49842C41.2912 9.28288 40.8516 10.1902 40.5813 11.168C40.3103 12.1459 40.2132 13.1749 40.2957 14.1963C40.3779 15.2177 40.6386 16.2116 41.0561 17.1209C41.4793 18.0297 42.0572 18.836 42.7569 19.4936C43.4562 20.151 44.2633 20.6469 45.132 20.9528C46.0005 21.2586 46.9135 21.368 47.8186 21.2747C48.7238 21.1814 49.6031 20.8869 50.4058 20.4083C51.2088 19.9301 51.9196 19.2777 52.4974 18.4884L50.641 16.7495C50.2264 17.3222 49.7051 17.7851 49.1138 18.1055C48.5229 18.426 47.8763 18.5962 47.2198 18.6041L47.2426 18.6044Z" fill="#CDBFBF"/>
<path d="M47.075 5.72915C46.0836 5.74068 45.1068 5.99367 44.2117 6.47077C43.3158 6.94799 42.5226 7.63788 41.8863 8.49325L43.7372 10.2329C44.5026 9.21178 45.5964 8.57446 46.7798 8.45995C47.9632 8.34543 49.1403 8.76302 50.0542 9.6216C50.9683 10.4817 51.5454 11.7122 51.6603 13.0461C51.7745 14.3801 51.4167 15.7094 50.6648 16.7448L52.5157 18.4838C53.3515 17.338 53.8789 15.9462 54.0361 14.4721C54.1929 12.9975 53.9726 11.5018 53.401 10.1609C52.8295 8.82069 51.9304 7.69126 50.8096 6.90581C49.6877 6.12333 48.3926 5.71528 47.075 5.72915V5.72915Z" fill="white"/>
<path d="M14.1734 18.0531C13.962 17.8518 13.6959 17.7379 13.4196 17.7302C13.1432 17.7225 12.8731 17.8215 12.6542 18.0108C11.9954 18.594 11.2043 18.9574 10.3704 19.0599C9.53651 19.1623 8.69309 18.9998 7.9355 18.5907C7.17782 18.1808 6.53584 17.5416 6.08156 16.7447C5.62735 15.9469 5.37944 15.0228 5.36575 14.0765C5.35206 13.1302 5.57313 12.1991 6.00407 11.3882C6.43467 10.5779 7.05796 9.91994 7.80371 9.48841C8.54908 9.05647 9.38758 8.86874 10.2242 8.94649C11.0608 9.02424 11.8621 9.36435 12.5373 9.9283C12.7586 10.1155 13.03 10.2116 13.3062 10.2005C13.5823 10.1893 13.8463 10.0717 14.0541 9.86724C14.1885 9.73401 14.2948 9.56985 14.3646 9.38549C14.4345 9.20114 14.4685 9.00035 14.4626 8.79882C14.4566 8.5973 14.4096 8.40007 14.3272 8.22145C14.2449 8.04284 14.1273 7.88597 13.9851 7.7651C12.95 6.89563 11.7204 6.36941 10.4355 6.24608C9.15018 6.12227 7.8609 6.40694 6.71412 7.06775C5.56735 7.72856 4.60904 8.73902 3.94805 9.98437C3.28605 11.2298 2.94651 12.6599 2.96768 14.1135C2.98886 15.5671 3.36991 16.9864 4.06791 18.2115C4.7657 19.4353 5.75308 20.4156 6.91825 21.0415C8.08342 21.6673 9.37982 21.9137 10.6607 21.7526C11.9413 21.5911 13.155 21.0285 14.1643 20.1287C14.3015 20.0043 14.4123 19.847 14.4887 19.6682C14.5651 19.4894 14.6051 19.2935 14.606 19.0949C14.607 18.8962 14.5687 18.6997 14.494 18.5195C14.4193 18.3393 14.31 18.18 14.174 18.0531L14.1734 18.0531Z" fill="#CDBFBF"/>
</g>
<defs>
<clipPath id="clip0_1404_253">
<rect width="56.7277" height="21.2959" fill="white" transform="translate(0 1.72701) rotate(-0.745642)"/>
</clipPath>
</defs>
</svg>
